<?xml version="1.0" encoding="UTF-8" standalone="no"?>
<!-- Created with Inkscape (http://www.inkscape.org/) -->

<svg
   width="1536"
   height="256"
   viewBox="0 0 406.4 67.73333"
   version="1.1"
   id="svg1"
   inkscape:version="1.4.2 (ebf0e940d0, 2025-05-08)"
   sodipodi:docname="text_logo_mono.svg"
   xmlns:inkscape="http://www.inkscape.org/namespaces/inkscape"
   xmlns:sodipodi="http://sodipodi.sourceforge.net/DTD/sodipodi-0.dtd"
   xmlns="http://www.w3.org/2000/svg"
   xmlns:svg="http://www.w3.org/2000/svg">
  <sodipodi:namedview
     id="namedview1"
     pagecolor="#000000"
     bordercolor="#00ff00"
     borderopacity="1"
     inkscape:showpageshadow="2"
     inkscape:pageopacity="0.0"
     inkscape:pagecheckerboard="false"
     inkscape:deskcolor="#3f3f3f"
     inkscape:document-units="px"
     showgrid="true"
     inkscape:zoom="0.31888586"
     inkscape:cx="1260.6392"
     inkscape:cy="-130.14061"
     inkscape:window-width="1920"
     inkscape:window-height="1008"
     inkscape:window-x="0"
     inkscape:window-y="0"
     inkscape:window-maximized="1"
     inkscape:current-layer="layer1">
    <inkscape:grid
       type="axonomgrid"
       id="grid2"
       units="px"
       originx="0"
       originy="0"
       spacingx="0.99999999"
       spacingy="4.2333333"
       empcolor="#0000ff"
       empopacity="1"
       color="#0096ff"
       opacity="0.34117647"
       empspacing="5"
       dotted="false"
       gridanglex="30"
       gridanglez="30"
       enabled="false"
       visible="true" />
  </sodipodi:namedview>
  <defs
     id="defs1">
    <inkscape:perspective
       sodipodi:type="inkscape:persp3d"
       inkscape:vp_x="-351.95271 : 135.46666 : 1"
       inkscape:vp_y="0 : 999.99996 : 0"
       inkscape:vp_z="586.58785 : 135.46666 : 1"
       inkscape:persp3d-origin="135.46667 : -112.88888 : 1"
       id="perspective20" />
  </defs>
  <g
     inkscape:label="Layer 1"
     inkscape:groupmode="layer"
     id="layer1">
    <g
       id="text39"
       style="font-size:60.2074px;font-family:'Open Sans';-inkscape-font-specification:'Open Sans';text-align:center;text-anchor:middle;fill:#ffffff;stroke-width:10.7431;stroke-linecap:round;stroke-linejoin:round"
       aria-label="Layer² ">
      <path
         style="font-weight:bold;font-family:Comfortaa;-inkscape-font-specification:'Comfortaa Bold'"
         d="M 8.0489428,50.48391 H 32.974807 c 1.746015,0 3.130785,-1.384771 3.130785,-3.130785 0,-1.746015 -1.38477,-3.130785 -3.130785,-3.130785 H 11.179728 V 6.5927141 c 0,-1.7460147 -1.3847705,-3.1307849 -3.1307852,-3.1307849 -1.6858072,0 -3.0705774,1.3847702 -3.0705774,3.1307849 V 47.353125 c 0,1.806222 1.3245628,3.130785 3.0705774,3.130785 z m 48.7078002,0.240829 c 4.756384,0 8.850488,-2.107259 11.620028,-5.478873 v 2.227674 c 0,1.746014 1.324563,3.070577 3.070578,3.070577 1.746014,0 3.070577,-1.324563 3.070577,-3.070577 V 34.047289 C 74.457719,24.53452 67.353245,17.309632 57.960891,17.309632 c -9.452562,0 -16.617243,7.224888 -16.617243,16.737657 0,9.512769 6.622814,16.67745 15.413095,16.67745 z m 1.204148,-5.418666 c -6.080948,0 -10.716918,-4.816592 -10.716918,-11.258784 0,-6.442192 4.63597,-11.318991 10.716918,-11.318991 6.080947,0 10.65671,4.876799 10.65671,11.318991 0,6.442192 -4.575763,11.258784 -10.65671,11.258784 z M 89.56973,64.933686 c 1.023526,0 1.86643,-0.662282 2.348089,-1.86643 L 110.34128,21.644564 c 0.7827,-1.746014 0.24083,-3.070577 -1.50518,-3.793066 -1.74602,-0.722489 -3.01037,-0.240829 -3.79307,1.444978 L 95.349641,41.151762 84.331686,19.236268 c -0.722488,-1.505185 -2.227673,-2.107259 -3.732858,-1.444977 -1.505185,0.662281 -2.227674,2.227674 -1.444978,3.732859 l 13.546665,25.70856 -6.02074,13.546665 c -0.782696,1.685807 -0.240829,3.01037 1.444978,3.793067 0.541866,0.240829 1.023526,0.361244 1.444977,0.361244 z M 130.3903,50.724739 c 3.67265,0 8.1882,-1.505185 10.89754,-3.672651 1.32456,-1.023526 1.26435,-2.649126 -0.12042,-3.853274 -1.02352,-0.842904 -2.58892,-0.842904 -3.79307,0.06021 -1.62559,1.204148 -4.51555,2.287882 -6.98405,2.287882 -6.08095,0 -10.65671,-3.853274 -11.55982,-9.392355 h 22.87881 c 1.6256,0 2.76954,-1.083733 2.76954,-2.649126 0,-9.512769 -5.59929,-16.19579 -14.99164,-16.19579 -9.51277,0 -16.256,6.923851 -16.256,16.737657 0,9.753599 7.10447,16.67745 17.15911,16.67745 z m -0.90311,-28.237271 c 5.41866,0 8.73007,3.672651 9.45256,8.850488 h -20.04907 c 0.90311,-5.238044 4.63597,-8.850488 10.59651,-8.850488 z m 25.82899,27.996442 c 1.98685,0 3.01037,-1.083734 3.01037,-3.01037 V 29.892978 c 0,-5.539081 5.84012,-8.429036 13.54667,-6.923851 1.56539,0.361245 2.88995,-0.120415 3.3114,-1.806222 0.54187,-2.167466 -1.92663,-3.973688 -6.74323,-3.973688 -4.03389,0 -7.70654,1.746014 -10.11484,4.515555 v -1.143941 c 0,-1.986844 -1.02352,-3.01037 -3.01037,-3.01037 -1.92664,0 -3.01037,1.083733 -3.01037,3.01037 V 47.47354 c 0,1.986844 1.08373,3.01037 3.01037,3.01037 z"
         id="path1" />
      <path
         style="font-family:Comfortaa;-inkscape-font-specification:Comfortaa"
         d="m 181.44618,27.243853 h 11.74045 c 1.26435,0 2.22767,-0.662282 2.22767,-1.986845 0,-1.324562 -1.02352,-1.926636 -2.22767,-1.926636 h -8.66987 l 6.86365,-7.285096 c 1.44497,-1.505185 3.2512,-3.311407 3.2512,-5.900325 0,-4.2145183 -3.13079,-7.3453032 -7.70655,-7.3453032 -4.8768,0 -8.18821,3.3114071 -8.18821,7.7065472 0,1.204148 0.66228,2.227674 1.80622,2.227674 1.32457,0 1.86643,-0.963318 1.86643,-2.227674 0,-2.1674663 1.74602,-3.9736883 4.45535,-3.9736883 2.16747,0 3.79307,1.505185 3.79307,3.5522363 0,1.023526 -0.36125,1.986845 -1.32457,3.01037 l -9.57297,10.355673 c -0.42145,0.421452 -0.54187,0.963319 -0.54187,1.565393 0,1.324563 0.90311,2.227674 2.22767,2.227674 z"
         id="path2" />
    </g>
    <path
       style="font-size:50.1729px;font-family:Comfortaa;-inkscape-font-specification:Comfortaa;text-align:center;text-anchor:middle;fill:#ffffff;stroke-width:7.61325;stroke-linecap:round;stroke-linejoin:round"
       d="m 222.30438,52.301492 c 7.27507,0 12.99478,-4.064005 12.99478,-11.288903 0,-6.271613 -3.96366,-10.285445 -12.34254,-11.489594 -7.07438,-0.953286 -9.48268,-3.762968 -9.48268,-7.124552 0,-4.264697 3.46193,-6.57265 8.78026,-6.57265 4.46539,0.05017 6.97404,2.107261 8.47922,4.465388 0.5519,0.953285 1.75605,1.354668 2.70934,0.852939 0.95328,-0.551902 1.20415,-1.655706 0.5519,-2.709337 -2.10726,-3.46193 -6.12109,-6.321785 -11.69028,-6.321785 -7.37542,0 -12.69375,3.863313 -12.69375,10.03458 0,5.669538 4.66608,9.884062 12.49305,10.837347 6.42213,0.802766 9.33216,4.013832 9.33216,8.077837 0,4.866771 -3.81314,7.525935 -9.13146,7.525935 -4.8166,0 -8.57957,-2.057089 -10.08476,-5.01729 -0.45155,-0.953285 -1.45501,-1.455014 -2.4083,-1.20415 -1.25432,0.301038 -1.75605,1.354669 -1.25432,2.4083 2.10726,4.565734 7.32524,7.525935 13.74738,7.525935 z m 31.40826,-0.501729 h 1.05363 c 1.20415,0 2.10727,-0.802767 2.10727,-1.906571 0,-1.153976 -0.7526,-1.956743 -1.80623,-1.956743 h -1.35467 c -3.11072,0 -5.3685,-2.408299 -5.3685,-5.820056 V 28.720228 h 5.66954 c 1.05363,0 1.75605,-0.70242 1.75605,-1.655706 0,-1.003458 -0.70242,-1.705878 -1.75605,-1.705878 h -5.66954 v -7.7768 c 0,-1.153977 -0.80276,-1.956743 -1.95674,-1.956743 -1.1038,0 -1.90657,0.802766 -1.90657,1.956743 v 7.7768 h -3.26124 c -1.05363,0 -1.75605,0.70242 -1.75605,1.705878 0,0.953286 0.70242,1.655706 1.75605,1.655706 h 3.26124 v 13.396165 c 0,5.569192 3.86331,9.633197 9.23181,9.68337 z m 21.37368,0.301037 c 3.71279,0 6.92386,-1.505187 9.13147,-3.963659 v 1.705879 c 0,1.153976 0.75259,1.956743 1.90657,1.956743 1.15397,0 1.95674,-0.802767 1.95674,-1.956743 V 26.261756 c 0,-1.153977 -0.80277,-1.90657 -1.95674,-1.90657 -1.15398,0 -1.90657,0.752593 -1.90657,1.90657 v 14.851179 c 0,4.164351 -3.81314,7.325243 -8.73009,7.325243 -5.11763,0 -8.98095,-2.960201 -8.98095,-9.131468 V 26.261756 c 0,-1.103804 -0.85294,-1.90657 -1.95674,-1.90657 -1.1038,0 -1.90657,0.802766 -1.90657,1.90657 V 39.30671 c 0,8.278529 5.3685,12.79409 12.44288,12.79409 z m 34.51896,-0.05017 c 7.87714,0 13.79754,-5.920402 13.94806,-13.797548 V 14.57147 c 0,-1.153977 -0.80276,-1.956743 -1.95674,-1.956743 -1.15398,0 -1.95674,0.802766 -1.95674,1.956743 v 14.750833 c -2.20761,-3.160893 -5.97058,-5.217982 -10.43597,-5.217982 -7.72662,0 -13.54668,5.970576 -13.54668,13.948067 0,7.977491 5.97058,13.998239 13.94807,13.998239 z m 0,-3.512103 c -5.76989,0 -10.1851,-4.515561 -10.1851,-10.486136 0,-5.970575 4.41521,-10.435964 10.1851,-10.435964 5.76988,0 10.13492,4.465389 10.13492,10.435964 0,5.970575 -4.36504,10.486136 -10.13492,10.486136 z m 25.68856,-29.40132 c 1.55536,0 2.75951,-1.20415 2.75951,-2.759509 0,-1.655706 -1.30449,-2.709337 -2.70933,-2.709337 -1.45502,0 -2.75951,1.053631 -2.75951,2.709337 0,1.555359 1.20415,2.759509 2.70933,2.759509 z m 0.0502,32.662559 c 1.1038,0 1.90657,-0.802767 1.90657,-1.956743 V 26.311929 c 0,-1.153977 -0.80277,-1.956743 -1.90657,-1.956743 -1.15398,0 -1.95675,0.802766 -1.95675,1.956743 V 49.84302 c 0,1.153976 0.80277,1.956743 1.95675,1.956743 z m 24.23349,0.250864 c 8.02766,0 13.94806,-5.920402 13.94806,-13.948066 -0.0502,-8.077837 -5.9204,-13.99824 -13.94806,-13.99824 -8.07784,0 -13.94807,5.920403 -13.94807,13.99824 0,8.027664 5.87023,13.948066 13.94807,13.948066 z m 0,-3.512103 c -5.82006,0 -10.1851,-4.415215 -10.1851,-10.435963 0,-6.070921 4.36504,-10.486137 10.1851,-10.486137 5.87022,0 10.13492,4.415216 10.13492,10.486137 0,6.020748 -4.2647,10.435963 -10.13492,10.435963 z m 31.05702,3.512103 c 6.27162,0 10.78718,-3.261238 10.78718,-7.927318 0,-3.712795 -2.45847,-6.723169 -9.98441,-7.977491 -5.46885,-0.903113 -7.07438,-2.307954 -7.07438,-4.615907 0,-2.257781 2.35813,-3.96366 6.07092,-3.96366 2.91003,0 5.06746,0.903113 6.72317,2.809683 0.70242,0.752593 1.90657,1.003458 2.70934,0.501729 0.95328,-0.602075 1.05363,-1.605533 0.40138,-2.508645 -1.95674,-2.608991 -5.21798,-4.264697 -9.73354,-4.264697 -5.41868,0 -9.93424,2.608991 -9.93424,7.676454 0,3.662622 3.06055,6.472304 9.78372,7.576108 5.21798,0.85294 7.32524,2.458472 7.32524,4.816599 -0.0502,2.408299 -2.15743,4.365042 -7.07438,4.365042 -3.16089,0 -5.97057,-1.003458 -7.5761,-2.910028 -0.70243,-0.752594 -1.75606,-0.953285 -2.70934,-0.250865 -0.90311,0.702421 -1.05363,1.856398 -0.30104,2.659164 2.4083,2.659164 6.62282,4.013832 10.58648,4.013832 z"
       id="text30"
       aria-label="Studios" />
  </g>
</svg>
